<svg xmlns="http://www.w3.org/2000/svg" viewBox="0 0 844.46 781"><defs><style>.cls-1,.cls-2,.cls-3,.cls-4{fill:#fff;}.cls-1{opacity:0.3;}.cls-2{opacity:0.05;}.cls-3{opacity:0.1;}.cls-4{opacity:0.8;}</style></defs><title>bgpolygons-white</title><g id="Layer_6" data-name="Layer 6"><polygon class="cls-1" points="453.34 602.82 451.68 612.59 445.87 603.18 453.34 602.82"/><polygon class="cls-1" points="385.89 749.75 380.11 758.03 388.96 756.72 385.89 749.75"/><polygon class="cls-1" points="353.34 704.01 357.35 707.68 351.99 711.04 353.34 704.01"/><polygon class="cls-1" points="672.37 622.66 660.36 623.02 667.78 632.54 672.37 622.66"/><polygon class="cls-1" points="543.33 565.41 550.07 570.44 541.63 574.59 543.33 565.41"/><polygon class="cls-1" points="594.99 541.21 597.55 550.37 589.96 547.77 594.99 541.21"/><path class="cls-1" d="M556.35,470c-.62.13-4.2-6.77-4.2-6.77l-3.7,7.14Z"/><polygon class="cls-1" points="599.72 401.73 607.46 408.63 595.46 411.77 599.72 401.73"/><path class="cls-1" d="M613.75,484.22l-7.56-5.74s-.72,8.5-.37,8.14S613.75,484.22,613.75,484.22Z"/><polygon class="cls-1" points="486.16 276.35 478.73 284.46 490.44 285.45 486.16 276.35"/><polygon class="cls-1" points="443.67 372.15 438.62 376.98 437.4 369.27 443.67 372.15"/><polygon class="cls-1" points="352.81 372.85 351.61 365.39 346.55 367.38 352.81 372.85"/><polygon class="cls-1" points="443.28 233.78 432.88 232 440.51 241.04 443.28 233.78"/><path class="cls-1" d="M336.11,141.19l-9,2.35s5.91,7.74,5.93,7.26S336.11,141.19,336.11,141.19Z"/><polygon class="cls-1" points="300.13 203.06 290.02 206.95 296.33 211.51 300.13 203.06"/><polygon class="cls-1" points="316.19 362.76 308.32 358.54 308.65 365.45 316.19 362.76"/><polygon class="cls-1" points="444.76 568.22 434.38 566.53 438.51 575.6 444.76 568.22"/><polygon class="cls-1" points="584.33 638.42 576.5 644.78 586.02 649.17 584.33 638.42"/><polygon class="cls-1" points="773.26 365.23 759.91 364.87 766.86 372.71 773.26 365.23"/><polygon class="cls-1" points="707.65 354.88 707.25 363.65 697.11 363.09 707.65 354.88"/><path class="cls-1" d="M642.07,164.75c.19.75,5.35,7.68,5.35,7.68L638,174.58Z"/><path class="cls-1" d="M510,155s6.22,7.43,5.55,7.55S503,164.3,503,164.3Z"/><polygon class="cls-1" points="393.97 62.32 392.45 53.51 386.06 61.94 393.97 62.32"/><polygon class="cls-1" points="470.69 252.02 469.1 242.98 464.06 252.13 470.69 252.02"/><polygon class="cls-1" points="160.82 384 156.45 376.41 153.17 382.92 160.82 384"/><polygon class="cls-1" points="273.65 532.93 271.93 541.64 266.81 538.03 273.65 532.93"/><polygon class="cls-1" points="357.73 518.96 355.79 529.25 351.21 519.29 357.73 518.96"/><polygon class="cls-1" points="311.38 645.6 304.44 640.91 302.82 647.78 311.38 645.6"/><polygon class="cls-1" points="328.99 599.6 321.73 596.96 322.55 604.97 328.99 599.6"/><polygon class="cls-1" points="661.71 662.34 656.99 670.02 665.72 668.19 661.71 662.34"/><polygon class="cls-1" points="295.6 286.26 292.24 277.84 286.23 285.96 295.6 286.26"/><polygon class="cls-1" points="228.91 238.45 218.38 239.6 225.43 243.91 228.91 238.45"/><polygon class="cls-1" points="283.37 733.95 277.71 738.49 284.29 743.54 283.37 733.95"/><polygon class="cls-1" points="96.35 495.24 92.51 486.87 89.84 492.46 96.35 495.24"/><polygon class="cls-1" points="168.74 317.7 163.42 313.43 163.12 319.12 168.74 317.7"/><polygon class="cls-1" points="33.95 287.81 29.73 279.71 30.64 289.2 33.95 287.81"/><polygon class="cls-1" points="90.59 188.1 90.51 176.99 88.93 187.72 90.59 188.1"/><polygon class="cls-1" points="366.65 524.89 357.16 522.28 359.26 531.64 366.65 524.89"/><polygon class="cls-1" points="714.35 634.19 708.25 641.6 718.68 642.19 714.35 634.19"/><path class="cls-1" d="M704,439.17c-.23.5-1.76,6.86-1.76,6.86l-4.94-3Z"/><polygon class="cls-1" points="772.35 508.97 770.14 503.41 765.44 511.48 772.35 508.97"/><path class="cls-1" d="M743.82,507.46s-5.24-4.42-5.4-3.93,0,7.06,0,7.06Z"/><polygon class="cls-1" points="776.82 439.13 770.34 436.38 770.95 442.6 776.82 439.13"/><path class="cls-1" d="M421.93,105.61c-.46-.42-5.61-6.73-5.61-6.73l-3.89,7.58Z"/><polygon class="cls-1" points="585.49 69.2 581.62 64.03 577.42 71.56 585.49 69.2"/><polygon class="cls-1" points="674.64 102.41 676.73 110.45 666.21 107.75 674.64 102.41"/><path class="cls-1" d="M505.53,141c-.71,0-10,2.52-10,2.52l8.34,2.55Z"/><polygon class="cls-1" points="559.43 100.72 554.91 96 551.41 105.69 559.43 100.72"/><path class="cls-1" d="M352.73,330.84c0,.86.09,12.38.09,12.38L349,338.45Z"/><polygon class="cls-1" points="407.1 520.48 397.73 515.5 399.74 521.77 407.1 520.48"/><polygon class="cls-1" points="447.3 610.83 441.61 603.62 438.91 610.59 447.3 610.83"/><path class="cls-1" d="M487.26,647.39c-.21.5-10.74-2-10.74-2l3.05,5.13Z"/><polygon class="cls-1" points="638.86 270.6 634.52 266.03 630.32 274.31 638.86 270.6"/><polygon class="cls-1" points="600.76 275.25 597.77 281.15 594.77 279.27 600.76 275.25"/></g><g id="Layer_5" data-name="Layer 5"><polygon class="cls-2" points="160.05 163.49 169.47 162.73 162.13 170.32 160.05 163.49"/><polygon class="cls-2" points="193.56 122.84 198.38 126.18 197.6 121.05 193.56 122.84"/><polygon class="cls-2" points="90.65 354.19 115.13 356.94 102.82 335.48 90.65 354.19"/><polygon class="cls-2" points="225.55 237.57 238.05 223.57 245.64 243.14 225.55 237.57"/><polygon class="cls-2" points="181.69 291.48 189.42 297.96 181.22 300.23 181.69 291.48"/><path class="cls-2" d="M245.39,350.49c.86-.18,5.84,9.31,5.84,9.31l5.06-9.87Z"/><polygon class="cls-2" points="233.58 467.95 238.3 466.94 236.18 472.31 233.58 467.95"/><path class="cls-2" d="M250.18,423.76l2.83,6.39s3.5-5.22,3.14-5.11S250.18,423.76,250.18,423.76Z"/><polygon class="cls-2" points="263.91 448.96 268.81 454.61 269.78 447.75 263.91 448.96"/><polygon class="cls-2" points="424.18 384.83 435.78 383.24 430.93 397.22 424.18 384.83"/><polygon class="cls-2" points="379.13 456.6 389.71 460.96 386.39 449.11 379.13 456.6"/><polygon class="cls-2" points="437.36 375.59 449.89 378.66 444.3 366.06 437.36 375.59"/><polygon class="cls-2" points="368.68 425.67 373.33 408.97 385.93 410.84 368.68 425.67"/><polygon class="cls-2" points="391.41 359.15 403.74 359.2 395.83 370.49 391.41 359.15"/><polygon class="cls-2" points="373.62 337.97 371.82 341.53 374.61 342.25 373.62 337.97"/><polygon class="cls-2" points="432.07 508.05 438.15 513.74 437.05 504.46 432.07 508.05"/><polygon class="cls-2" points="610.65 407.68 614.19 414.2 616.74 409.51 610.65 407.68"/><polygon class="cls-2" points="208.51 254.13 211.92 256.59 212.07 252.6 208.51 254.13"/><polygon class="cls-2" points="99.41 274.75 115.48 289.59 121.95 267.79 99.41 274.75"/><polygon class="cls-2" points="139.51 558.13 146.3 574.6 152.09 561.88 139.51 558.13"/><polygon class="cls-2" points="256.03 601.12 267.78 615.4 251.16 628.86 256.03 601.12"/><path class="cls-2" d="M524.34,654.66c.43-.86,1.19-11.69,1.19-11.69l10.75,5.67Z"/><path class="cls-2" d="M537.45,466.08s11.56,1.8,11,2.44-10,11.6-10,11.6Z"/><polygon class="cls-2" points="656.94 521.82 655.7 534.61 667.76 525.35 656.94 521.82"/><polygon class="cls-2" points="494.68 458.08 492.32 463.39 498.2 460.37 494.68 458.08"/><path class="cls-2" d="M461.43,424.4c.51,0,8.25.35,8.25.35l-.48,5.62Z"/><polygon class="cls-2" points="608.4 178.96 612.82 183.41 613.9 178.31 608.4 178.96"/><polygon class="cls-2" points="426.79 144.48 432.62 139.88 433.91 144.97 426.79 144.48"/><polygon class="cls-2" points="282.07 174.57 293.77 163.76 290.35 180.07 282.07 174.57"/><polygon class="cls-2" points="230.81 118.46 228.13 128.69 236.99 127.74 230.81 118.46"/><polygon class="cls-2" points="240.86 101.88 243.23 105.81 245.84 101.81 240.86 101.88"/><polygon class="cls-2" points="274.86 224.15 289.4 211.92 290.49 230.5 274.86 224.15"/><polygon class="cls-2" points="247.83 291.9 253.69 283.21 256.14 291.43 247.83 291.9"/><polygon class="cls-2" points="70.21 292.93 86.39 287.06 71.17 279.41 70.21 292.93"/><polygon class="cls-2" points="589.92 263.18 582.78 276.71 599.78 275.54 589.92 263.18"/><polygon class="cls-2" points="648.04 404.71 650.28 410.27 651.55 405.77 648.04 404.71"/><polygon class="cls-2" points="184.63 16.83 192.67 19.72 193.69 10 184.63 16.83"/><polygon class="cls-2" points="533.11 116.42 528.97 124.5 534.93 123.16 533.11 116.42"/><polygon class="cls-2" points="594.84 183.13 588.47 184.72 592.65 188.27 594.84 183.13"/><polygon class="cls-2" points="801.59 195.38 808.98 201.97 804.41 192.7 801.59 195.38"/><polygon class="cls-2" points="755.41 252.15 751.22 264.13 757.05 253.19 755.41 252.15"/><polygon class="cls-2" points="335.71 219.7 351.3 227.82 351.13 210.68 335.71 219.7"/><polygon class="cls-2" points="351.08 324.83 351.48 333.42 355.78 328.79 351.08 324.83"/><polygon class="cls-2" points="35.07 349.63 29.71 360.33 42.55 358.15 35.07 349.63"/><path class="cls-2" d="M185.3,510c.46-.63,4.34-9.26,4.34-9.26l6.21,5.63Z"/><polygon class="cls-2" points="148.22 514.89 147.97 522.03 156.98 515.46 148.22 514.89"/><path class="cls-2" d="M184,528s-2.09,1.34-1.94,1.45,2.45.74,2.45.74Z"/><polygon class="cls-2" points="125.98 509.99 132.02 515.63 133.84 508.52 125.98 509.99"/><path class="cls-2" d="M549.57,578.09c-.4,0-5.63-.61-5.63-.61l1.6,5.28Z"/><polygon class="cls-2" points="472.33 761.45 469.93 766.18 477 766.54 472.33 761.45"/><polygon class="cls-2" points="421.67 713.25 434.39 721.37 417.05 730.77 421.67 713.25"/><path class="cls-2" d="M570.77,528.44c-.15.65,0,9.73,0,9.73l4.26-7Z"/><polygon class="cls-2" points="501.54 663.08 494.72 665.42 502.8 673.41 501.54 663.08"/><path class="cls-2" d="M460.66,280.82c.89-.66,12.45-10.08,12.45-10.08l-1.77,7.69Z"/><polygon class="cls-2" points="380.65 171.79 373.57 187.45 383.49 183.54 380.65 171.79"/><polygon class="cls-2" points="357.21 273.19 353.9 275.78 357.08 277.03 357.21 273.19"/><path class="cls-2" d="M213.32,156.08c.34-.07,2.82,6.37,2.82,6.37l1.59-3.46Z"/><polygon class="cls-2" points="414.04 549.98 411.81 560.19 427.07 558.25 414.04 549.98"/><polygon class="cls-2" points="304.2 488.06 311.09 484.93 312.44 488.76 304.2 488.06"/></g><g id="Layer_4" data-name="Layer 4"><polygon class="cls-3" points="175.89 196.92 199.37 190.79 184.2 213.24 175.89 196.92"/><polygon class="cls-3" points="199.52 89.97 213.31 93.32 207.08 82.39 199.52 89.97"/><polygon class="cls-3" points="242.56 30.65 245.42 23.11 253 28.66 242.56 30.65"/><polygon class="cls-3" points="78.16 329.93 97.93 349.02 101.66 321.67 78.16 329.93"/><polygon class="cls-3" points="210.93 258.26 226.46 246.43 230.35 267.91 210.93 258.26"/><polygon class="cls-3" points="220.73 294.68 234.5 296.57 226.6 305.24 220.73 294.68"/><path class="cls-3" d="M203.3,343.61c1.08-.29,8,11.41,8,11.41l5.76-12.83Z"/><polygon class="cls-3" points="236.08 508.34 249.06 506.93 241.86 520.81 236.08 508.34"/><path class="cls-3" d="M204.82,407.34l-2.14,23.57s18.94-9.72,17.71-10S204.82,407.34,204.82,407.34Z"/><polygon class="cls-3" points="287.26 480.35 297.83 487.02 296.07 475.58 287.26 480.35"/><polygon class="cls-3" points="371.2 383.82 394.56 382.79 382.36 409.69 371.2 383.82"/><polygon class="cls-3" points="337.95 499.96 343.6 510.37 348.67 498.68 337.95 499.96"/><polygon class="cls-3" points="421.28 388.98 437.59 389.92 427.73 375.51 421.28 388.98"/><polygon class="cls-3" points="411.62 423.06 419.97 403.05 435.31 407.32 411.62 423.06"/><polygon class="cls-3" points="397.5 328.79 412.19 321.7 409.34 339.71 397.5 328.79"/><polygon class="cls-3" points="399.39 345.26 392.61 356.75 401.74 359.75 399.39 345.26"/><polygon class="cls-3" points="474.01 466.29 477.02 481 485.07 466.2 474.01 466.29"/><path class="cls-3" d="M602.47,412.48l6.19,14.18S619.79,415,619,415.07,602.47,412.48,602.47,412.48Z"/><polygon class="cls-3" points="639.58 431.26 648.9 441.16 651.21 431.66 639.58 431.26"/><polygon class="cls-3" points="531.34 347.99 533 361.01 540.99 354.72 531.34 347.99"/><polygon class="cls-3" points="236.06 234.07 239.12 251.15 250.97 239.76 236.06 234.07"/><polygon class="cls-3" points="70.96 292.4 84.16 311.99 96.38 290.68 70.96 292.4"/><polygon class="cls-3" points="131.38 586.5 133.38 618.47 150.62 600.17 131.38 586.5"/><polygon class="cls-3" points="263.66 620.15 282.29 626.41 274.88 647.9 263.66 620.15"/><path class="cls-3" d="M483.44,654.79c1.68-.58,16.6-13.85,16.6-13.85l6.84,21.29Z"/><path class="cls-3" d="M485.66,490.25s12.42-3.54,12.2-2.65-4.72,16.27-4.72,16.27Z"/><polygon class="cls-3" points="676.55 536.03 671.72 554.96 692.01 543.85 676.55 536.03"/><polygon class="cls-3" points="445.62 483.19 438.39 492.51 451.45 489.4 445.62 483.19"/><path class="cls-3" d="M419.36,468.5c1.05,0,16.9,1.37,16.9,1.37l-1.43,11.49Z"/><polygon class="cls-3" points="601.8 193.78 610.63 211.03 618.59 197.01 601.8 193.78"/><polygon class="cls-3" points="410.04 115.88 418.04 106.73 421.64 114.53 410.04 115.88"/><polygon class="cls-3" points="268.58 186.15 289.86 175.43 278.2 197.47 268.58 186.15"/><polygon class="cls-3" points="240.76 138.45 246.95 156.97 259.69 146.55 240.76 138.45"/><polygon class="cls-3" points="272.84 102.44 271.03 121.32 289.56 114.46 272.84 102.44"/><polygon class="cls-3" points="265.92 252.23 275.07 229.28 287.73 249.91 265.92 252.23"/><polygon class="cls-3" points="232.13 240.57 246.67 237 241.38 248.05 232.13 240.57"/><polygon class="cls-3" points="77.63 310.88 95.6 316.56 87.47 299.78 77.63 310.88"/><polygon class="cls-3" points="551.21 295.15 544.94 312.33 564.89 308.2 551.21 295.15"/><polygon class="cls-3" points="603.77 367.71 609.91 382.77 613.3 370.54 603.77 367.71"/><polygon class="cls-3" points="184.47 59.2 196.71 72.02 207.63 54.95 184.47 59.2"/><polygon class="cls-3" points="511.32 91.31 512.22 105.24 519.02 98.78 511.32 91.31"/><polygon class="cls-3" points="628.59 212.4 620.01 222.41 630.97 223.34 628.59 212.4"/><polygon class="cls-3" points="820.85 200.53 826.67 214.86 826.65 198.72 820.85 200.53"/><polygon class="cls-3" points="773.36 206.15 761.7 230.09 776.52 208.72 773.36 206.15"/><polygon class="cls-3" points="355.71 195.64 365.05 217.59 379.65 199.48 355.71 195.64"/><polygon class="cls-3" points="305.77 302.98 298.28 317.3 309.63 313.85 305.77 302.98"/><polygon class="cls-3" points="21.91 329.85 23.08 346.91 37.3 334.89 21.91 329.85"/><path class="cls-3" d="M159.33,465.51c.56-.8,5.24-11.54,5.24-11.54l7.78,6.88Z"/><polygon class="cls-3" points="100.88 473.18 96.94 481.22 110.61 478.32 100.88 473.18"/><path class="cls-3" d="M136.82,541.41s-2.54,9.31-1.82,9.22,9-4.23,9-4.23Z"/><polygon class="cls-3" points="111.31 504.43 112.95 516.94 122 510.34 111.31 504.43"/><path class="cls-3" d="M576.94,600.91c-.91.63-14,7.05-14,7.05l11.66,9.88Z"/><polygon class="cls-3" points="499.82 715.31 499.73 724.18 510.6 719.47 499.82 715.31"/><polygon class="cls-3" points="423.91 697.62 439.73 702.81 423.77 717.62 423.91 697.62"/><path class="cls-3" d="M537.4,522.59c0,1,3.77,13.37,3.77,13.37l3.12-11.33Z"/><polygon class="cls-3" points="464.05 623.11 457.98 631.57 474.19 634.23 464.05 623.11"/><path class="cls-3" d="M480.77,290.86c1.21-.91,16.85-13.69,16.85-13.69l-2.38,10.41Z"/><polygon class="cls-3" points="345.91 140.33 345.75 164.03 356.07 153.55 345.91 140.33"/><polygon class="cls-3" points="325.2 217.56 322.74 236.23 336.83 230.24 325.2 217.56"/><path class="cls-3" d="M167.2,183.32c1.09,0,3.58,21.78,3.58,21.78l7.64-9.34Z"/><polygon class="cls-3" points="401.46 535.08 404.48 545.52 417.48 536.17 401.46 535.08"/><polygon class="cls-3" points="317.28 533.71 332.93 530.65 333.83 539.15 317.28 533.71"/></g><g id="Layer_3" data-name="Layer 3"><polygon class="cls-1" points="180.29 166.23 172.73 188.9 197.29 186.54 180.29 166.23"/><path class="cls-1" d="M288.91,128.92l-8,23.14s22.2-1.41,20.78-1.88S288.91,128.92,288.91,128.92Z"/><polygon class="cls-1" points="250.18 227.63 254.43 252.66 261.04 226.68 250.18 227.63"/><polygon class="cls-1" points="432.95 263.99 440.03 282.88 453.73 266.82 432.95 263.99"/><polygon class="cls-1" points="526.93 305.08 547.24 292.8 543.93 313.58 526.93 305.08"/><path class="cls-1" d="M302.6,492.57,292.21,512.4s24.09-7.08,22.67-6.61S302.6,492.57,302.6,492.57Z"/><path class="cls-1" d="M224.21,502.48l-7.09,18.42,18.42-2.83S227.51,502.48,224.21,502.48Z"/><polygon class="cls-1" points="95.28 505.32 89.14 522.79 105.67 521.38 95.28 505.32"/><polygon class="cls-1" points="74.97 549.71 65.53 565.29 84.42 563.88 74.97 549.71"/><polygon class="cls-1" points="455.14 577.1 443.34 587.02 458.45 587.02 455.14 577.1"/><polygon class="cls-1" points="491.98 377.33 500.95 393.86 511.34 377.33 491.98 377.33"/><polygon class="cls-1" points="337.55 272.02 352.19 269.19 352.66 280.52 337.55 272.02"/><polygon class="cls-1" points="202.48 147.34 207.68 172.84 214.76 147.34 202.48 147.34"/><polygon class="cls-1" points="440.5 487.84 444.75 511.93 453.73 491.15 440.5 487.84"/><polygon class="cls-1" points="306.38 158.68 325.74 153.01 327.63 177.09 306.38 158.68"/><polygon class="cls-1" points="221.37 409.92 224.21 421.73 233.65 414.17 221.37 409.92"/><polygon class="cls-1" points="89.61 434.01 98.11 449.12 103.78 440.62 89.61 434.01"/><polygon class="cls-1" points="370.14 265.41 374.39 292.33 381.94 275.33 370.14 265.41"/><polygon class="cls-1" points="438.14 619.13 435.78 632.83 450.42 629.05 438.14 619.13"/><polygon class="cls-1" points="443.64 185.06 430.29 207.79 457.33 210.88 443.64 185.06"/><path class="cls-1" d="M542.39,127.59l7.25,24.56s18-14.71,16.52-14.25S542.39,127.59,542.39,127.59Z"/><polygon class="cls-1" points="494.74 201.15 493.28 231.57 507.71 202.84 494.74 201.15"/><polygon class="cls-1" points="708.1 245.47 720.82 262.26 729.74 242.11 708.1 245.47"/><polygon class="cls-1" points="770.11 317.31 789.65 297.06 792.18 321.88 770.11 317.31"/><path class="cls-1" d="M561.18,512.86,539,526s27.84,7.67,26.17,7.27S561.18,512.86,561.18,512.86Z"/><path class="cls-1" d="M513.65,539.75l-1.89,22.91,19.67-9.19S517.35,538.67,513.65,539.75Z"/><polygon class="cls-1" points="336.52 562.54 334.22 580.93 350.08 576.04 336.52 562.54"/><polygon class="cls-1" points="324.96 612.12 325.76 630.56 340.88 618.74 324.96 612.12"/><polygon class="cls-1" points="714.8 618.97 699.36 624.24 714.26 630.02 714.8 618.97"/><polygon class="cls-1" points="690.44 430.14 704.41 443.43 709.33 424.03 690.44 430.14"/><polygon class="cls-1" points="601.11 286.74 611.87 275.42 619.17 284.8 601.11 286.74"/><polygon class="cls-1" points="466.47 123.11 468.83 152.86 480.44 124.82 466.47 123.11"/><polygon class="cls-1" points="728.58 473.98 726.84 502.53 742.71 481.35 728.58 473.98"/><polygon class="cls-1" points="575.61 159.51 596.65 148.88 603.95 176.16 575.61 159.51"/><polygon class="cls-1" points="513.22 436.51 507.63 448.49 520.8 448.46 513.22 436.51"/><polygon class="cls-1" points="381.48 479.77 382.28 498.96 392.15 493.42 381.48 479.77"/><polygon class="cls-1" points="611.74 249.41 623.8 276.81 627.06 256.63 611.74 249.41"/><polygon class="cls-1" points="657.34 610.08 646.81 622.2 663.54 627.22 657.34 610.08"/></g><g id="Layer_2" data-name="Layer 2"><polygon class="cls-4" points="195.78 195.42 214.97 179.76 210.42 207.04 195.78 195.42"/><polygon class="cls-4" points="201.84 93.4 222.04 108.55 219.51 86.33 201.84 93.4"/><polygon class="cls-4" points="201.84 63.6 211.94 54.51 219.01 68.66 201.84 63.6"/><polygon class="cls-4" points="34.77 308.77 37.96 338.66 60.27 318.34 34.77 308.77"/><polygon class="cls-4" points="209.69 297.22 228.42 287.66 228.42 311.17 209.69 297.22"/><polygon class="cls-4" points="186.59 334.67 209.69 329.1 202.52 347.82 186.59 334.67"/><path class="cls-4" d="M241.17,378.11c1.6,0,6.78,18.72,6.78,18.72l12.75-15.54Z"/><polygon class="cls-4" points="223.24 483.3 241.17 464.57 247.95 494.85 223.24 483.3"/><path class="cls-4" d="M213.28,449.43l10,21.52S234.8,453,233.6,453.41,213.28,449.43,213.28,449.43Z"/><polygon class="cls-4" points="317.68 460.19 324.85 484.1 337.2 464.57 317.68 460.19"/><polygon class="cls-4" points="341.19 438.02 358.72 421.69 367.09 450.77 341.19 438.02"/><polygon class="cls-4" points="381.03 452.62 387.41 474.53 401.75 454.61 381.03 452.62"/><polygon class="cls-4" points="395.38 429.11 415.7 447.64 418.09 418.35 395.38 429.11"/><polygon class="cls-4" points="406.73 399.62 427.65 387.47 438.41 401.62 406.73 399.62"/><polygon class="cls-4" points="445.18 377.31 459.53 367.35 459.53 386.87 445.18 377.31"/><polygon class="cls-4" points="444.78 343.04 442.39 361.77 455.94 360.57 444.78 343.04"/><polygon class="cls-4" points="444.78 438.27 442.79 464.57 463.51 443.45 444.78 438.27"/><path class="cls-4" d="M613.73,414l6.77,22.31s18.73-15.54,17.53-15.54S613.73,414,613.73,414Z"/><polygon class="cls-4" points="604.57 387.27 616.52 411.58 626.48 394.84 604.57 387.27"/><polygon class="cls-4" points="531.25 304.79 530.45 327.1 545.59 318.74 531.25 304.79"/><polygon class="cls-4" points="270.76 274.24 275.91 300.01 293.52 282.4 270.76 274.24"/><polygon class="cls-4" points="77.5 342.52 95.54 360.13 103.69 335.22 77.5 342.52"/><polygon class="cls-4" points="160.38 567.13 184 590.75 184.86 564.55 160.38 567.13"/><polygon class="cls-4" points="211.92 610.93 233.82 609.65 235.11 634.99 211.92 610.93"/><path class="cls-4" d="M449.84,637.13c1.72-.86,15.89-17.18,15.89-17.18L476,641.86Z"/><path class="cls-4" d="M497.94,528.05s21-12,21-10.31-1.28,31.78-1.28,31.78Z"/><polygon class="cls-4" points="627.21 499.7 627.21 522.04 646.53 504 627.21 499.7"/><polygon class="cls-4" points="433.95 510.01 430.94 532.77 449.84 514.74 433.95 510.01"/><path class="cls-4" d="M389.72,571.56c1.29-.86,21.48-12.89,21.48-12.89l8.16,15Z"/><polygon class="cls-4" points="562.36 175.46 562.79 197.36 577.82 187.06 562.36 175.46"/><polygon class="cls-4" points="394.01 154.85 415.48 149.26 412.91 164.72 394.01 154.85"/><polygon class="cls-4" points="305.97 176.75 325.73 159.57 319.29 186.2 305.97 176.75"/><polygon class="cls-4" points="264.31 135.09 274.19 153.56 285.79 140.25 264.31 135.09"/><polygon class="cls-4" points="290.08 115.77 278.49 131.23 298.24 135.09 290.08 115.77"/><polygon class="cls-4" points="245.85 252.34 269.47 240.74 264.74 266.08 245.85 252.34"/><polygon class="cls-4" points="235.54 279.39 260.45 272.52 251.86 291.85 235.54 279.39"/><polygon class="cls-4" points="37.56 345.53 49.15 364.85 55.17 343.38 37.56 345.53"/><polygon class="cls-4" points="564.08 291.85 567.94 314.18 586.84 297.43 564.08 291.85"/><polygon class="cls-4" points="630.22 322.34 637.95 347.68 645.25 328.35 630.22 322.34"/><polygon class="cls-4" points="219.22 47.48 229.96 62.08 243.27 46.19 219.22 47.48"/><polygon class="cls-4" points="549.05 59.08 535.3 77.55 550.76 76.69 549.05 59.08"/><polygon class="cls-4" points="598 207.24 586.84 220.13 601.01 221.41 598 207.24"/><polygon class="cls-4" points="784.82 147.55 780.1 169.88 793.41 150.12 784.82 147.55"/><polygon class="cls-4" points="803.29 206.38 788.69 230 806.29 209.39 803.29 206.38"/><polygon class="cls-4" points="336.89 226.57 343.76 250.19 360.94 233.44 336.89 226.57"/><polygon class="cls-4" points="274.19 308.6 268.18 332.21 283.64 323.2 274.19 308.6"/><polygon class="cls-4" points="56.02 358.41 72.77 375.59 77.07 349.82 56.02 358.41"/><path class="cls-4" d="M135.48,490.69c1.28-.43,15.46-8.59,15.46-8.59l3,14.17Z"/><polygon class="cls-4" points="118.73 509.58 107.13 519.03 129.89 524.18 118.73 509.58"/><path class="cls-4" d="M98.54,530.2s-6.44,15.89-5.15,15.89,16.75-5.59,16.75-5.59Z"/><polygon class="cls-4" points="159.96 543.94 156.09 561.12 171.12 556.82 159.96 543.94"/><path class="cls-4" d="M618.19,562.41c-.86,1.28-14.6,16.32-14.6,16.32l20.18,6.87Z"/><polygon class="cls-4" points="506.96 704.56 499.23 718.73 520.7 720.45 506.96 704.56"/><polygon class="cls-4" points="402.17 706.28 421.07 697.69 418.92 724.74 402.17 706.28"/><path class="cls-4" d="M499.23,547c-.43,1.71-.43,25.76-.43,25.76l11.6-18.46Z"/><polygon class="cls-4" points="472.17 601.06 472.6 617.38 495.36 605.35 472.17 601.06"/><path class="cls-4" d="M443.83,312.46c2.15,0,30.92-1.29,30.92-1.29l-11.6,9.88Z"/><polygon class="cls-4" points="311.56 190.49 324.44 213.68 328.73 197.79 311.56 190.49"/><polygon class="cls-4" points="281.49 231.29 278.49 254.05 295.67 246.75 281.49 231.29"/><path class="cls-4" d="M204.62,216.26c1.29-.43,13.74,23.62,13.74,23.62l4.73-14.17Z"/><polygon class="cls-4" points="687.15 438.4 684.11 448.72 679.05 437.83 687.15 438.4"/><polygon class="cls-4" points="718.01 467.78 695.39 471.74 711.7 483.9 718.01 467.78"/><polygon class="cls-4" points="769.16 468.95 771.42 478.21 760.34 477.88 769.16 468.95"/><polygon class="cls-4" points="778.45 225.93 770.55 197.49 752.21 220.77 778.45 225.93"/><polygon class="cls-4" points="644.77 378.09 635.59 388.84 629.55 374.23 644.77 378.09"/><polygon class="cls-4" points="627.38 293.52 617.09 295.88 620.37 287.6 627.38 293.52"/><path class="cls-4" d="M606.54,271.11c-.34,1.32-17,1.56-17,1.56l10.15,14Z"/><polygon class="cls-4" points="516.56 151.31 513.84 171.68 495.35 155.46 516.56 151.31"/><path class="cls-4" d="M602.49,220.29,585,218s6.66,14.43,6.89,13.51S602.49,220.29,602.49,220.29Z"/><polygon class="cls-4" points="472.6 198.65 464.3 192.91 465.33 202.19 472.6 198.65"/><polygon class="cls-4" points="488.01 293.76 482.79 303.65 474.64 292.11 488.01 293.76"/><polygon class="cls-4" points="572.07 377.64 561.49 371.95 562.57 383.28 572.07 377.64"/><polygon class="cls-4" points="724.52 231.86 705.51 226.88 709.58 246.9 724.52 231.86"/><polygon class="cls-4" points="592.86 529.28 598.65 547.43 582.71 535.46 592.86 529.28"/><polygon class="cls-4" points="699.9 529.76 688.38 521.09 685 532.76 699.9 529.76"/><polygon class="cls-4" points="635.31 561.84 642.28 546.64 624.87 546.99 635.31 561.84"/><polygon class="cls-4" points="713.91 340.72 705 352.44 701.01 338.58 713.91 340.72"/><polygon class="cls-4" points="644.77 301.28 630.92 300.4 638.67 292.1 644.77 301.28"/><polygon class="cls-4" points="802.09 226.26 790.96 228.76 800.32 235.07 802.09 226.26"/><polygon class="cls-4" points="776.29 549.41 762.01 555.35 772.49 569.6 776.29 549.41"/><polygon class="cls-4" points="547.85 423.42 531.92 423.38 539.2 437.11 547.85 423.42"/><polygon class="cls-4" points="581.21 304.4 571.53 298.54 573.45 306.62 581.21 304.4"/><polygon class="cls-4" points="728.98 189.97 709 193.31 724.8 208.7 728.98 189.97"/><polygon class="cls-4" points="596.5 448.56 586.82 431.74 583.85 443.41 596.5 448.56"/><polygon class="cls-4" points="553.45 428.49 558.54 417.96 549.06 418.75 553.45 428.49"/><path class="cls-4" d="M735.76,407.76c-1,.29-10-18.76-10-18.76l-4.09,10.88Z"/><polygon class="cls-4" points="352.78 577.44 348.06 592.47 371.25 591.61 352.78 577.44"/><polygon class="cls-4" points="360.94 531.06 377.26 533.63 375.12 542.22 360.94 531.06"/></g></svg>